# xmcd
#
# Track frame offsets: 
#        182
#        20012
#        42007
#        69422
#        92707
#        118385
#        151985
#        159980
#        188262
#        191165
#
# Disc length: 3075 seconds
#
# Revision: 289
# Processed by: cddbd v1.5.2PL0 Copyright (c) Steve Scherf et al.
# Submitted via: ExactAudioCopy v1.3
#
DISCID=7a0c010a
DTITLE=Pink Floyd - A Momentary Lapse Of Reason
DYEAR=1987
DGENRE=Progressive Rock
TTITLE0=Signs Of Life
TTITLE1=Learning To Fly
TTITLE2=The Dogs Of War
TTITLE3=One Slip
TTITLE4=On The Turning Away
TTITLE5=Yet Another Movie - 6a. Round And Around
TTITLE6=A New Machine (Part 1)
TTITLE7=Terminal Frost
TTITLE8=A New Machine (Part 2)
TTITLE9=Sorrow
EXTD=Bob Ezrin and David Gilmour
EXTT0=Gilmour, Ezrin
EXTT1=Gilmour, Ezrin, Moore, Carin
EXTT2=Gilmour, Moore
EXTT3=Gilmour, Manzanera
EXTT4=Gilmour, Moore
EXTT5=Gilmour, Leonard
EXTT6=David Gilmour
EXTT7=David Gilmour
EXTT8=David Gilmour
EXTT9=David Gilmour
PLAYORDER=
